<svg xmlns="http://www.w3.org/2000/svg" width="1024" height="1024" viewBox="0 0 1024 1024"><path d="M756.5 67.6c-27.8-15.8-57.2-28.5-87.6-38.1C618.2 13.1 565.2 5 512 5.4c-88.4-.1-175.3 23-251.9 67.1-67.6 38.8-125.5 92.4-169.3 156.8C-65 462.7-2 778.2 231.4 933.9c39.6 26.4 82.6 47.1 128 61.5h1.9c266.9 83.5 550.9-65.2 634.4-332.1 3.3-10.6 6.3-21.3 8.9-32 9.6-39 14.3-79 14.2-119.2.3-184.9-100.3-355.3-262.3-444.5zM512 964.7c-27.2-.2-54.3-2.9-81.1-8 5.5-5.1 8.7-12.2 8.7-19.7v-72c0-7.2-2.9-14-8-19.1l-54.2-54.4c-24.4-21-50.1-40.3-77-57.8-4.5-2.9-9.7-4.4-15-4.4h-65.6l-55.2-26.7-12.3-46.4 25.2-25.4c6.8-6.8 9.6-16.5 7.4-25.8l-9.9-38.5h55.9c15.2.1 27.6-12.2 27.6-27.4 0-1.5-.1-2.9-.3-4.3l-12.7-77h112.6c15 0 27.1-12.1 27.1-27.1v-90.4c-.1-8.3-4.1-16.2-10.8-21.2L302 264.9c-4.7-3.6-10.4-5.5-16.3-5.5H201l-47.2-23.7c33.1-42.7 73.6-79.2 119.6-107.5l71.3 37.7c5.5 2.9 11.9 3.8 18 2.5l84.7-16.9 66.7 16.7c2.2.2 4.4.2 6.6 0h6.6c18.6-4.7 81.3-21.2 103.1-43.4l36.8-37c11.9 4.4 23.5 9.3 34.7 14.8-7.4 11.5-9.2 25.8-4.9 38.7l12.5 37.7-13.1 52.7-59.3 29.2-1.9 1.1-4 2.8-120.9 85.9c-7.8 5.6-13.6 13.5-16.5 22.6l-8.5 24.8c-8.1 23.6 4.5 49.2 28 57.3 4.6 1.6 9.4 2.4 14.3 2.4h98.8c5.7.1 11.4-1 16.7-3.2l82.1-33h21.2v53.8c-21.2 26-55.5 55-81.5 55-16.9 0-35.8-1.9-55.7-3.8-45.3-4.9-88.3-8.9-119.4 6.6-31.2 15.3-42.4 46.7-35.8 88.2-12 11.9-16.3 29.6-11 45.7 5.2 16.2 19 28.1 35.8 30.9l51.2 8.5v55.2c-.1 19 11.9 36 29.8 42.3 28.1 10.1 57.8 15.1 87.6 15 17.9.2 35.4 4.9 51 13.8 21.8 12.3 49.4 4.6 61.7-17.2 3.7-6.6 5.7-14.1 5.8-21.7v-29l28.4-42.3c5.1-7.5 7.8-16.3 7.8-25.4v-32.6l16.9-8.3c7-3.6 12.9-9 17.4-15.5l21.2-30.7c59.7 29 73.4 29 78.7 29 3 .4 6 1.2 8.9 2.3-56.5 192.1-233 323.7-433.2 323.3z"/></svg>