<svg xmlns="http://www.w3.org/2000/svg" width="1024" height="1024" viewBox="0 0 1024 1024"><path d="M428.3 5.9C232 5.9 70 165.8 70 364.2c0 299.6 330 633.7 344.2 647.8 4 4 10.1 6.1 14.2 6.1 6.1 0 10.1-2 14.2-6.1 14.2-14.2 344.2-350.2 344.2-647.8C786.7 165.8 624.7 5.9 428.3 5.9zm0 526.3c-105.2 0-192.3-87-192.3-192.3s87.1-192.3 192.3-192.3 192.3 87.1 192.3 192.3-87 192.3-192.3 192.3zm391.6-177.5c-.4 37.2-5.4 74.9-14 112.6 21.7 23.4 35 54.7 35 88.7 0 68.4-54 125.5-121.2 130.7-39.2 72.9-84.9 140.5-127.7 197.5 53.1 74 103.7 125.3 108.2 129.8 2.8 2.8 6.9 4.1 9.7 4.1 4.1 0 6.9-1.4 9.7-4.1 9.6-9.7 234.4-238.6 234.4-441.4 0-95.3-54.9-177.6-134.1-217.9z"/></svg>