<svg xmlns="http://www.w3.org/2000/svg" width="1024" height="1024" viewBox="0 0 1024 1024"><path d="M654.7 639.8l-.2.1s-4.2 1.8-11.4 4.9c-1.8.8-3.7 1.8-6 2.6s-4.7 1.7-7.3 2.6c-2.6.9-5.4 1.9-8.3 3-3 .9-6.2 1.8-9.4 2.8-3.3.9-6.7 2.1-10.3 2.9-3.6.9-7.4 1.7-11.2 2.6-1.9.4-3.8 1-5.8 1.3-2 .4-4 .7-6.1 1.1-4.1.7-8.3 1.6-12.5 2.2-8.6 1-17.5 2.4-26.6 2.9-2.3.2-4.6.4-6.9.5l-3.4.3-3.5.1-13.9.3c-4.6.1-9.3-.2-13.9-.2-2.3-.1-4.6-.1-6.9-.2-2.3-.2-4.6-.4-6.8-.5-4.5-.4-9.1-.6-13.5-1.1-4.4-.6-8.8-1.1-13.1-1.7-4.3-.4-8.4-1.4-12.6-2.1-4.1-.8-8.2-1.3-11.9-2.3-7.6-2-15-3.4-21.4-5.6-3.3-1-6.4-2-9.4-2.9s-5.6-2.1-8.1-3c-5.1-2-9.6-3.5-13.1-5.4-7.2-3.4-11.3-5.3-11.3-5.3-1.3-.6-2.9-.3-3.8.7-1 1.1-.7 2.6.6 3.4 0 0 3.8 2.3 10.6 6.3 3.2 2.1 7.8 4.1 13 6.6 2.6 1.2 5.3 2.6 8.3 3.8 3 1.1 6.2 2.3 9.5 3.5 6.6 2.7 14.1 4.6 22 6.9 3.9 1.2 8.1 1.9 12.4 2.9 4.2.9 8.6 2 13.1 2.5 4.5.7 9 1.3 13.6 2 4.6.6 9.4.9 14.1 1.3l7.2.6c2.4.1 4.8.1 7.2.2 4.8.1 9.7.4 14.5.3 4.8-.2 9.7-.3 14.5-.5l3.6-.1 3.6-.3c2.4-.2 4.8-.4 7.1-.6 9.5-.6 18.7-2.3 27.7-3.6 4.4-.8 8.8-1.8 13-2.7 2.1-.5 4.2-.9 6.3-1.4s4-1.1 6-1.6 7.8-2.2 11.5-3.2 7.1-2.5 10.5-3.6c3.3-1.2 6.5-2.3 9.5-3.4 2.9-1.3 5.7-2.5 8.3-3.7s5-2.2 7.2-3.2 4.1-2.2 5.9-3.1c7-3.8 11-6.1 11-6.1 1.1-.6 1.5-1.9.9-2.9-1.1-1-2.7-1.5-4.1-.9zM1013.2 408c0-1.7-.1-3.4-.2-5.3-.2-1.8-.6-3.6-.9-5.6-.6-3.9-2.1-7.7-3.5-11.8-.9-2-1.8-3.9-2.8-5.9-.9-2-2.2-3.9-3.4-5.7-2.4-3.9-5.5-7.2-8.6-10.7-3.4-3.1-6.8-6.3-10.6-8.7-1.9-1.3-3.7-2.6-5.7-3.5-2-1-3.9-2-5.9-2.9-4.1-1.4-7.9-3-11.8-3.6-1.9-.3-3.8-.7-5.6-1-1.8-.1-3.6-.2-5.3-.3-3.3-.2-6.4.2-9.1.6-1.3.2-2.6.4-3.7.6-1.1.3-2.2.6-3.1.9-3.7 1.2-5.7 2.1-5.7 2.1-1.1.5-2.1 1.4-2.8 2.5-2.1 3.2-1.2 7.5 2 9.6l.8.5s1.7 1.1 4.5 2.7c.7.4 1.4.8 2.3 1.2.8.5 1.7 1 2.6 1.6 1.8 1 3.8 2.1 5.8 3.5 1 .6 2.1 1.2 3.1 1.9 1 .8 2.1 1.5 3.2 2.2 2.2 1.3 4.3 3.2 6.5 4.7 1.7 1.5 3.5 2.8 5.2 4.3-.1.1-.2.1-.3.2l-.5.4s-3 2.4-8.7 7c-2.8 2.3-6.3 5.1-10.4 8.5-2 1.7-4.2 3.5-6.6 5.4-2.4 1.8-5 3.7-7.7 5.8-5.4 4.1-11.4 8.6-17.9 13.5-6.8 4.5-14 9.6-21.7 14.9-15.7 10.3-33.8 21.3-53.9 32.5-4.9 3-10.3 5.3-15.6 8.1-5.3 2.7-10.8 5.4-16.3 8.2-5.6 2.5-11.4 5.1-17.2 7.7-2.9 1.3-5.8 2.6-8.8 4-2.9 1.3-6 2.4-9.1 3.6-6.1 2.4-12.2 4.9-18.5 7.4-6.3 2.4-12.8 4.5-19.2 6.7-3.2 1.1-6.5 2.3-9.8 3.4s-6.7 2-10 3.1-13.5 4-20.3 6.1c-27.6 7.2-56.3 13.3-85.9 17.5-29.6 3.8-59.9 6-90.2 6.1-30.3-.2-60.5-2.4-90.1-6.2-29.5-4.2-58.2-10.4-85.8-17.6-6.8-2-13.6-4.1-20.3-6.1-3.3-1-6.7-1.9-10-3.1-3.3-1.1-6.5-2.3-9.8-3.4-6.5-2.3-12.9-4.4-19.2-6.8-6.2-2.5-12.4-5-18.5-7.4-3-1.2-6.1-2.3-9-3.7-2.9-1.3-5.9-2.7-8.7-4-5.8-2.6-11.5-5.2-17.2-7.7-5.5-2.8-10.9-5.5-16.3-8.2-5.3-2.8-10.7-5.1-15.6-8.1-5-2.8-9.9-5.6-14.7-8.4-4.8-2.7-9.5-5.4-13.9-8.2-4.5-2.8-8.8-5.5-13-8.1s-8.4-5.1-12.2-7.9c-7.7-5.3-14.9-10.4-21.7-14.9-6.4-4.8-12.3-9.3-17.7-13.3-2.7-2-5.2-3.9-7.6-5.7-2.4-2-4.6-3.8-6.7-5.5-4.2-3.4-7.7-6.3-10.6-8.7-5.8-4.7-8.9-7.2-8.9-7.2-.2-.1-.3-.2-.5-.4 1.5-1.3 3.1-2.4 4.5-3.7 2.3-1.4 4.3-3.4 6.5-4.7 1.1-.7 2.1-1.5 3.2-2.2s2.1-1.3 3.1-1.9c2-1.4 4-2.4 5.8-3.5.9-.6 1.8-1 2.6-1.6.8-.4 1.6-.8 2.3-1.2 2.8-1.5 4.5-2.7 4.5-2.7l.8-.5c1-.7 1.9-1.6 2.5-2.8 1.6-3.5.2-7.6-3.3-9.3 0 0-2-.9-5.7-2.1-.9-.3-2-.6-3.1-.9-1.1-.2-2.4-.4-3.7-.6-2.7-.4-5.8-.8-9.1-.6-1.7 0-3.4.1-5.3.3-1.8.3-3.6.6-5.6 1-3.9.6-7.7 2.1-11.8 3.6-2 .9-3.9 1.9-5.9 2.9-2 .9-3.9 2.2-5.7 3.5-3.9 2.4-7.2 5.6-10.6 8.7-3.1 3.4-6.2 6.8-8.6 10.7-1.3 1.9-2.5 3.7-3.4 5.7-1 2-2 3.9-2.8 5.9-1.4 4.1-2.9 7.9-3.5 11.8-.3 1.9-.7 3.8-.9 5.6-.1 1.8-.2 3.6-.2 5.3s-.1 3.2.1 4.8c.2 1.6.3 3.1.5 4.5s.4 2.7.6 3.9c.3 1 .6 1.9.9 2.8 1.2 3.3 2.2 5.2 2.2 5.2.5 1.1 1.4 2.1 2.5 2.8 3.2 2 7.4 1 9.3-2.2 0 0 1.1-1.8 2.7-5 .4-.8.8-1.7 1.2-2.6.5-.8 1-1.6 1.6-2.4 1.1-1.7 2.1-3.4 3.5-5.5.7-1 1.3-2.1 1.9-3.2.8-1 1.5-2.1 2.3-3.2 1.3-2.2 3.3-4.3 4.7-6.5.4-.4.7-.8 1.1-1.3.2.3.4.5.6.8 0 0 2.7 3 7.6 8.5 2.5 2.8 5.6 6.2 9.2 10.1 1.8 2 3.7 4.1 5.9 6.4 2.3 2.2 4.7 4.6 7.3 7.1 5.2 5 10.9 10.6 17.2 16.6 6.4 5.7 13.5 11.7 21.1 18.2 3.7 3.3 7.8 6.4 12 9.6s8.5 6.6 12.9 10c2.2 1.7 4.4 3.5 6.8 5.1s4.8 3.2 7.2 4.9c4.9 3.3 9.8 6.7 14.9 10.2 5 3.6 10.5 6.6 16 10 5.5 3.3 11.1 6.7 16.7 10.2 5.9 3.1 11.8 6.3 17.9 9.6 3 1.6 6.1 3.2 9.2 4.9 3.1 1.6 6.3 3 9.5 4.6 6.4 3 12.9 6 19.5 9.1 6.6 2.9 13.5 5.6 20.4 8.4 3.5 1.4 6.9 2.8 10.4 4.2s7.1 2.5 10.7 3.8c7.2 2.5 14.4 5 21.8 7.5 14.9 4.2 29.9 9 45.5 12.3l11.7 2.7 5.9 1.3 5.9 1.1c7.9 1.4 15.9 2.8 23.9 4.3 32.2 4.9 65.2 7.4 98.3 7.6 33.1-.3 66.1-2.9 98.3-7.8 8-1.4 16-2.9 23.9-4.3l5.9-1.1 5.9-1.4 11.7-2.7c15.6-3.3 30.6-8.1 45.5-12.4 7.3-2.5 14.6-5 21.7-7.5 3.6-1.3 7.2-2.4 10.7-3.8s6.9-2.8 10.4-4.2c6.9-2.9 13.7-5.5 20.4-8.4 6.6-3.1 13.1-6.1 19.5-9.1 3.2-1.5 6.4-2.9 9.5-4.6 3.1-1.6 6.1-3.3 9.2-4.9 6-3.3 12-6.5 17.8-9.6 5.7-3.5 11.2-6.9 16.7-10.2 5.4-3.4 10.9-6.4 15.9-10 5.1-3.5 10-6.9 14.9-10.2s9.6-6.5 14-10c4.4-3.4 8.7-6.8 12.9-10 4.2-3.3 8.3-6.3 12-9.7 7.5-6.5 14.6-12.5 21-18.2 6.2-6 11.8-11.5 16.9-16.4 2.5-2.5 5-4.8 7.2-7 2.2-2.3 4.1-4.5 6-6.6 3.7-4.1 6.9-7.6 9.4-10.4 5.1-5.7 7.8-8.7 7.8-8.7.2-.2.3-.4.5-.6.5.6 1 1.3 1.6 1.9 1.5 2.3 3.4 4.3 4.7 6.5.8 1.1 1.5 2.2 2.3 3.2.7 1.1 1.3 2.1 1.9 3.2 1.4 2.1 2.4 3.9 3.5 5.5.6.8 1 1.6 1.6 2.4.4 1 .9 1.8 1.2 2.6 1.6 3.2 2.7 5 2.7 5 .7 1 1.6 1.9 2.8 2.5 3.4 1.6 7.4.3 9.1-3.1 0 0 .9-1.9 2.2-5.2.3-.8.6-1.7.9-2.8.2-1.2.4-2.5.6-3.9s.3-2.9.5-4.5c.5-1.6.4-3.1.4-4.8z"/></svg>