<svg xmlns="http://www.w3.org/2000/svg" width="863" height="1024" viewBox="0 0 863 1024"><path d="M5.071 128.261C163.76 139.784 309.032 110.03 430.36-.128 532.232 81.553 663.043 130.96 805.394 130.96c15.777 0 31.412-.607 46.883-1.799l-2.052.127c3.755 5.713 7.382 8.634 7.414 11.587 1.412 129.898 15.599 261.111-11.555 389.116-40.593 215.569-180.994 391.511-370.362 480.455l-4.053 1.711c-11.761 7.322-26.037 11.662-41.327 11.662-15.051 0-29.119-4.206-41.094-11.507l.348.197c-54.222-28.907-100.414-58.445-144.093-91.155l2.865 2.053C99.019 795.692 9.275 635.302 2.214 435.303-.996 345.045.384 254.627.096 164.306c1.005-13.512 2.77-25.843 5.3-37.894l-.325 1.848zm641.433 187.801L375.86 514.52l-130.893-89.006-56.202 67.757L375.764 690.06l321.294-326.558z"/></svg>