<svg width="450" height="68" viewBox="0 0 450 68" fill="none" xmlns="http://www.w3.org/2000/svg">
<g filter="url(#filter0_d_20_103)">
<path d="M53.52 5.2V58H44.16V13.92L31.36 58H25.12L12.32 13.76V58H4.8V5.2H18.88L29.52 43.2L40.08 5.2H53.52ZM78.3613 15.6C84.3346 15.6 88.7613 17.5467 91.6413 21.44C94.5213 25.28 95.9613 30.48 95.9613 37.04C95.9613 44.0267 94.5746 49.5733 91.8013 53.68C89.0279 57.7333 84.5479 59.76 78.3613 59.76C72.2813 59.76 67.8279 57.8133 65.0013 53.92C62.2279 50.0267 60.8413 44.6667 60.8413 37.84C60.8413 31.2267 62.2813 25.8667 65.1613 21.76C68.0413 17.6533 72.4413 15.6 78.3613 15.6ZM78.3613 54.96C81.6679 54.96 83.8279 53.3333 84.8413 50.08C85.8546 46.8267 86.3613 42.6133 86.3613 37.44C86.3613 32.6933 85.8013 28.6667 84.6813 25.36C83.6146 22.0533 81.5079 20.4 78.3613 20.4C73.0813 20.4 70.4413 26.08 70.4413 37.44C70.4413 42.6133 70.9213 46.8267 71.8813 50.08C72.8946 53.3333 75.0546 54.96 78.3613 54.96ZM103.796 17.2L111.156 16.24L111.556 23.44C112.569 20.88 114.116 18.9333 116.196 17.6C118.329 16.2667 120.809 15.6 123.636 15.6C128.116 15.6 131.236 16.8533 132.996 19.36C134.756 21.8133 135.636 25.5733 135.636 30.64V51.44C135.636 54.0533 136.462 55.8133 138.116 56.72C137.689 57.52 136.996 58.1333 136.036 58.56C135.076 58.9867 134.062 59.2 132.996 59.2C130.916 59.2 129.369 58.6133 128.356 57.44C127.342 56.2667 126.836 54.6133 126.836 52.48V31.76C126.836 28.4 126.462 25.8933 125.716 24.24C124.969 22.5867 123.316 21.76 120.756 21.76C117.502 21.76 115.316 23.2 114.196 26.08C113.129 28.96 112.596 32.6667 112.596 37.2V58H103.796V17.2ZM177.021 51.44C177.021 54.0533 177.848 55.8133 179.501 56.72C179.075 57.52 178.435 58.1333 177.581 58.56C176.781 58.9867 175.848 59.2 174.781 59.2C173.235 59.2 171.955 58.7733 170.941 57.92C169.928 57.0133 169.315 55.8133 169.101 54.32C168.248 56.08 166.861 57.4133 164.941 58.32C163.075 59.28 161.048 59.76 158.861 59.76C153.421 59.76 149.475 57.68 147.021 53.52C144.568 49.36 143.341 44.0267 143.341 37.52C143.341 30.8 144.781 25.4667 147.661 21.52C150.595 17.5733 155.128 15.6 161.261 15.6C163.821 15.6 166.141 15.9467 168.221 16.64V2L177.021 1.04V51.44ZM168.221 22.88C165.768 21.2267 163.315 20.4 160.861 20.4C157.608 20.4 155.475 21.9467 154.461 25.04C153.448 28.1333 152.941 32.16 152.941 37.12C152.941 41.8667 153.528 45.9467 154.701 49.36C155.875 52.72 158.035 54.4 161.181 54.4C163.528 54.4 165.288 53.52 166.461 51.76C167.635 49.9467 168.221 47.7067 168.221 45.04V22.88ZM191.849 1.2C193.929 1.2 195.502 1.81333 196.569 3.04C197.635 4.21333 198.169 5.89333 198.169 8.08C198.169 9.78667 197.769 11.4667 196.969 13.12C196.169 14.7733 195.075 16.1333 193.689 17.2C192.302 18.2133 190.782 18.72 189.129 18.72C188.009 18.72 186.995 18.5333 186.089 18.16C188.062 15.2267 189.049 11.9733 189.049 8.4C189.049 7.22667 188.915 6.18666 188.649 5.28C188.382 4.32 187.955 3.30666 187.369 2.24C188.595 1.54666 190.089 1.2 191.849 1.2ZM233.163 5.2V11.12H215.723V27.92H230.763V33.84H215.723V52.08H234.283L233.723 58H206.363V5.2H233.163ZM270.481 17.2L258.561 58H247.681L236.641 17.2H245.761L253.921 52.64L262.081 17.2H270.481ZM297.351 54.32C296.337 56.1867 294.844 57.5467 292.871 58.4C290.951 59.3067 288.764 59.76 286.311 59.76C282.631 59.76 279.537 58.64 277.031 56.4C274.577 54.16 273.351 51.2533 273.351 47.68C273.351 39.04 281.057 34.72 296.471 34.72V27.76C296.471 25.0933 296.071 23.12 295.271 21.84C294.471 20.5067 292.951 19.84 290.711 19.84C288.844 19.84 287.297 20.3467 286.071 21.36C284.844 22.32 284.231 23.68 284.231 25.44C284.231 26.56 284.444 27.76 284.871 29.04C284.124 29.6267 283.057 29.92 281.671 29.92C279.751 29.92 278.231 29.44 277.111 28.48C275.991 27.52 275.431 26.1333 275.431 24.32C275.431 21.76 276.871 19.68 279.751 18.08C282.631 16.4267 286.471 15.6 291.271 15.6C294.791 15.6 297.564 16.1333 299.591 17.2C301.617 18.2133 303.057 19.8133 303.911 22C304.817 24.1333 305.271 27.0133 305.271 30.64V51.44C305.271 54.0533 306.097 55.8133 307.751 56.72C307.324 57.52 306.684 58.1333 305.831 58.56C305.031 58.9867 304.097 59.2 303.031 59.2C301.484 59.2 300.204 58.7733 299.191 57.92C298.177 57.0133 297.564 55.8133 297.351 54.32ZM289.431 54.4C291.777 54.4 293.537 53.52 294.711 51.76C295.884 49.9467 296.471 47.7067 296.471 45.04V38.72C287.457 38.72 282.951 41.6 282.951 47.36C282.951 49.4933 283.511 51.2 284.631 52.48C285.804 53.76 287.404 54.4 289.431 54.4ZM328.631 19.84C327.031 19.84 325.751 20.2667 324.791 21.12C323.831 21.92 323.351 23.0933 323.351 24.64C323.351 26.72 324.044 28.4267 325.431 29.76C326.871 31.04 329.057 32.48 331.991 34.08C334.337 35.36 336.204 36.5067 337.591 37.52C339.031 38.5333 340.257 39.84 341.271 41.44C342.284 42.9867 342.791 44.88 342.791 47.12C342.791 51.1733 341.324 54.2933 338.391 56.48C335.511 58.6667 331.831 59.76 327.351 59.76C323.457 59.76 320.177 59.0933 317.511 57.76C314.897 56.4267 313.591 54.2133 313.591 51.12C313.591 49.3067 314.151 47.92 315.271 46.96C316.391 46 317.911 45.52 319.831 45.52C321.217 45.52 322.284 45.8133 323.031 46.4C322.604 47.68 322.391 48.88 322.391 50C322.391 51.7067 322.924 53.0667 323.991 54.08C325.057 55.04 326.497 55.52 328.311 55.52C330.284 55.52 331.777 55.0133 332.791 54C333.857 52.9333 334.391 51.3867 334.391 49.36C334.391 47.28 333.671 45.6 332.231 44.32C330.844 42.9867 328.684 41.52 325.751 39.92C323.404 38.5867 321.511 37.4133 320.071 36.4C318.684 35.3867 317.484 34.1067 316.471 32.56C315.457 30.96 314.951 29.04 314.951 26.8C314.951 23.2267 316.391 20.48 319.271 18.56C322.151 16.5867 325.644 15.6 329.751 15.6C333.537 15.6 336.631 16.2933 339.031 17.68C341.484 19.0133 342.711 21.2267 342.711 24.32C342.711 26.1333 342.124 27.52 340.951 28.48C339.831 29.44 338.311 29.92 336.391 29.92C335.004 29.92 333.937 29.6267 333.191 29.04C333.617 27.76 333.831 26.56 333.831 25.44C333.831 23.68 333.377 22.32 332.471 21.36C331.617 20.3467 330.337 19.84 328.631 19.84ZM355.698 0.399998C357.458 0.399998 358.871 0.826664 359.938 1.68C361.058 2.53333 361.618 3.76 361.618 5.36C361.618 7.01333 361.031 8.29333 359.858 9.2C358.738 10.0533 357.271 10.48 355.458 10.48C353.698 10.48 352.284 10.0533 351.217 9.2C350.151 8.34666 349.618 7.12 349.618 5.52C349.618 3.86666 350.178 2.61333 351.298 1.76C352.471 0.853332 353.938 0.399998 355.698 0.399998ZM359.858 51.44C359.858 54.0533 360.684 55.8133 362.338 56.72C361.911 57.52 361.218 58.1333 360.258 58.56C359.298 58.9867 358.258 59.2 357.138 59.2C355.111 59.2 353.591 58.6133 352.578 57.44C351.564 56.2667 351.058 54.6133 351.058 52.48V17.2H359.858V51.44ZM385.549 15.6C391.522 15.6 395.949 17.5467 398.829 21.44C401.709 25.28 403.149 30.48 403.149 37.04C403.149 44.0267 401.762 49.5733 398.989 53.68C396.215 57.7333 391.735 59.76 385.549 59.76C379.469 59.76 375.015 57.8133 372.189 53.92C369.415 50.0267 368.029 44.6667 368.029 37.84C368.029 31.2267 369.469 25.8667 372.349 21.76C375.229 17.6533 379.629 15.6 385.549 15.6ZM385.549 54.96C388.855 54.96 391.015 53.3333 392.029 50.08C393.042 46.8267 393.549 42.6133 393.549 37.44C393.549 32.6933 392.989 28.6667 391.869 25.36C390.802 22.0533 388.695 20.4 385.549 20.4C380.269 20.4 377.629 26.08 377.629 37.44C377.629 42.6133 378.109 46.8267 379.069 50.08C380.082 53.3333 382.242 54.96 385.549 54.96ZM410.983 17.2L418.343 16.24L418.743 23.44C419.756 20.88 421.303 18.9333 423.383 17.6C425.516 16.2667 427.996 15.6 430.823 15.6C435.303 15.6 438.423 16.8533 440.183 19.36C441.943 21.8133 442.823 25.5733 442.823 30.64V51.44C442.823 54.0533 443.65 55.8133 445.303 56.72C444.876 57.52 444.183 58.1333 443.223 58.56C442.263 58.9867 441.25 59.2 440.183 59.2C438.103 59.2 436.556 58.6133 435.543 57.44C434.53 56.2667 434.023 54.6133 434.023 52.48V31.76C434.023 28.4 433.65 25.8933 432.903 24.24C432.156 22.5867 430.503 21.76 427.943 21.76C424.69 21.76 422.503 23.2 421.383 26.08C420.316 28.96 419.783 32.6667 419.783 37.2V58H410.983V17.2Z" fill="url(#paint0_linear_20_103)" shape-rendering="crispEdges"/>
</g>
<defs>
<filter id="filter0_d_20_103" x="0.800049" y="0.400024" width="448.503" height="67.36" filterUnits="userSpaceOnUse" color-interpolation-filters="sRGB">
<feFlood flood-opacity="0" result="BackgroundImageFix"/>
<feColorMatrix in="SourceAlpha" type="matrix" values="0 0 0 0 0 0 0 0 0 0 0 0 0 0 0 0 0 0 127 0" result="hardAlpha"/>
<feOffset dy="4"/>
<feGaussianBlur stdDeviation="2"/>
<feComposite in2="hardAlpha" operator="out"/>
<feColorMatrix type="matrix" values="0 0 0 0 0 0 0 0 0 0 0 0 0 0 0 0 0 0 0.85 0"/>
<feBlend mode="normal" in2="BackgroundImageFix" result="effect1_dropShadow_20_103"/>
<feBlend mode="normal" in="SourceGraphic" in2="effect1_dropShadow_20_103" result="shape"/>
</filter>
<linearGradient id="paint0_linear_20_103" x1="225" y1="-24" x2="225" y2="92" gradientUnits="userSpaceOnUse">
<stop stop-color="#C6DFD4" stop-opacity="0.870225"/>
<stop offset="0.0729167" stop-color="#BAEEFF"/>
<stop offset="0.3125" stop-color="#BAEDFE" stop-opacity="0.995674"/>
<stop offset="0.390625" stop-color="#C4E1D9" stop-opacity="0.885463"/>
<stop offset="1" stop-color="#FF9900" stop-opacity="0.23"/>
</linearGradient>
</defs>
</svg>
