<svg width="96" height="22" viewBox="0 0 96 22" fill="none" xmlns="http://www.w3.org/2000/svg">
<path d="M12 0L14.6942 7.60081H23.4127L16.3593 12.2984L19.0534 19.8992L12 15.2016L4.94658 19.8992L7.64074 12.2984L0.587322 7.60081H9.30583L12 0Z" fill="#F9B508"/>
<path d="M36 0L38.6942 7.60081H47.4127L40.3593 12.2984L43.0534 19.8992L36 15.2016L28.9466 19.8992L31.6407 12.2984L24.5873 7.60081H33.3058L36 0Z" fill="#F9B508"/>
<path d="M60 0L62.6942 7.60081H71.4127L64.3593 12.2984L67.0534 19.8992L60 15.2016L52.9466 19.8992L55.6407 12.2984L48.5873 7.60081H57.3058L60 0Z" fill="#F9B508"/>
<path d="M84 0L86.6942 7.60081H95.4127L88.3593 12.2984L91.0534 19.8992L84 15.2016L76.9466 19.8992L79.6407 12.2984L72.5873 7.60081H81.3058L84 0Z" fill="#F9B508"/>
</svg>
