<svg width="122" height="22" viewBox="0 0 122 22" fill="none" xmlns="http://www.w3.org/2000/svg">
<path d="M36 0L38.6942 7.60081H47.4127L40.3593 12.2984L43.0534 19.8992L36 15.2016L28.9466 19.8992L31.6407 12.2984L24.5873 7.60081H33.3058L36 0Z" fill="#F9B508"/>
<path d="M60 0L62.6942 7.60081H71.4127L64.3593 12.2984L67.0534 19.8992L60 15.2016L52.9466 19.8992L55.6407 12.2984L48.5873 7.60081H57.3058L60 0Z" fill="#F9B508"/>
<path d="M85 0L87.6942 7.60081H96.4127L89.3593 12.2984L92.0534 19.8992L85 15.2016L77.9466 19.8992L80.6407 12.2984L73.5873 7.60081H82.3058L85 0Z" fill="#F9B508"/>
<path d="M110 0L112.694 7.60081H121.413L114.359 12.2984L117.053 19.8992L110 15.2016L102.947 19.8992L105.641 12.2984L98.5873 7.60081H107.306L110 0Z" fill="url(#paint0_linear_138_14)"/>
<path d="M12 0L14.6942 7.60081H23.4127L16.3593 12.2984L19.0534 19.8992L12 15.2016L4.94658 19.8992L7.64074 12.2984L0.587322 7.60081H9.30583L12 0Z" fill="#F9B508"/>
<defs>
<linearGradient id="paint0_linear_138_14" x1="102.5" y1="9.5" x2="119.5" y2="9.5" gradientUnits="userSpaceOnUse">
<stop stop-color="#F9B508"/>
<stop offset="0.609375" stop-color="#F9B508" stop-opacity="0"/>
<stop offset="1" stop-color="white" stop-opacity="0.56"/>
</linearGradient>
</defs>
</svg>
